inDegrees=no
num_controls=7
num_derivatives=13
num_iterations=108
num_multipliers=7
num_parameters=0
num_slacks=7
num_states=26
objective=0.477087
objective_accelerations=0.044697
objective_balance=0.003595
objective_effort=0.040677
objective_height=0.382455
objective_ligament=0.005664
solver_duration=1486.884050
status=Solve_Succeeded
success=true
DataType=double
version=3
OpenSimVersion=4.5
endheader
time	/jointset/ground_pelvis/pelvis_tilt/value	/jointset/ground_pelvis/pelvis_tx/value	/jointset/ground_pelvis/pelvis_ty/value	/jointset/hip_l/hip_flexion_l/value	/jointset/hip_l/hip_adduction_l/value	/jointset/hip_l/hip_rotation_l/value	/jointset/back/lumbar_extension/value	/jointset/patellofemoral_l/patellar_flexion_l/value	/jointset/knee_l/knee_flexion_l/value	/jointset/knee_l/knee_adduction_l/value	/jointset/knee_l/knee_rotation_l/value	/jointset/ankle_l/ankle_angle_l/value	/jointset/subtalar_l/subtalar_angle_l/value	/jointset/ground_pelvis/pelvis_tilt/speed	/jointset/ground_pelvis/pelvis_tx/speed	/jointset/ground_pelvis/pelvis_ty/speed	/jointset/hip_l/hip_flexion_l/speed	/jointset/hip_l/hip_adduction_l/speed	/jointset/hip_l/hip_rotation_l/speed	/jointset/back/lumbar_extension/speed	/jointset/patellofemoral_l/patellar_flexion_l/speed	/jointset/knee_l/knee_flexion_l/speed	/jointset/knee_l/knee_adduction_l/speed	/jointset/knee_l/knee_rotation_l/speed	/jointset/ankle_l/ankle_angle_l/speed	/jointset/subtalar_l/subtalar_angle_l/speed	/forceset/tau_hip_flexion_l	/forceset/tau_hip_adduction_l	/forceset/tau_hip_rotation_l	/forceset/tau_knee_flexion_l	/forceset/tau_ankle_angle_l	/forceset/tau_subtalar_angle_l	/forceset/tau_lumbar_extension	lambda_cid13_p0	lambda_cid13_p1	lambda_cid13_p2	lambda_cid13_p3	lambda_cid13_p4	lambda_cid13_p5	lambda_cid14_p0	/jointset/ground_pelvis/pelvis_tilt/accel	/jointset/ground_pelvis/pelvis_tx/accel	/jointset/ground_pelvis/pelvis_ty/accel	/jointset/hip_l/hip_flexion_l/accel	/jointset/hip_l/hip_adduction_l/accel	/jointset/hip_l/hip_rotation_l/accel	/jointset/back/lumbar_extension/accel	/jointset/patellofemoral_l/patellar_flexion_l/accel	/jointset/knee_l/knee_flexion_l/accel	/jointset/knee_l/knee_adduction_l/accel	/jointset/knee_l/knee_rotation_l/accel	/jointset/ankle_l/ankle_angle_l/accel	/jointset/subtalar_l/subtalar_angle_l/accel	gamma_cid13_p0	gamma_cid13_p1	gamma_cid13_p2	gamma_cid13_p3	gamma_cid13_p4	gamma_cid13_p5	gamma_cid14_p0
0.5	-0.09554160843799246	-0.04067459172230177	0.8061731361671508	0.9325530285766924	-0.3296944476914447	-0.07766607503538243	-0.7902435706458144	0.9249724669099103	0.9249724669099106	-0.1028085485519017	-0.1743320134789921	0.1524448925212216	0.01454328655504869	-0.1266518828513729	-0.1599864522832903	-0.4190289683942409	1.605308191597685	-0.02685655590346226	0.5616730478004962	-0.8442003700715265	1.789285702962837	1.789285702962839	0.1581259979164959	0.001501981226944946	0.4334421086881836	0.1192136723031925	-0.2751473269306712	0.02787595408090842	-0.004784573877735919	-0.2436297778046016	0.07830860794330959	0.04215000492618098	0.3303946610020003	-19.0840899004436	-16.47045482145404	3.891968063372268	-7.714234059969333	-702.4977611062909	-70.7614523943529	-9.600127825125803	0.3033894282133143	0.6658623111494349	-0.1879769685011398	-1.556359238076281	0.3307772167172405	-0.5730818128607567	1.976088030437501	-1.482995399541205	-1.482995399541275	-0.1928965199376302	-0.01665211113950487	-0.3084245485135403	0.3292622964882491	-2.60188616670141e-07	-1.479312359122128e-07	1.575438533121197e-06	1.515294034660227e-07	-2.960383060253975e-07	-9.441285069744464e-08	-2.209794042990381e-07
0.51	-0.0967928083388592	-0.04224110150613501	0.8019744064319384	0.9485258290445642	-0.3299473504408225	-0.07207714916256053	-0.7985857431688854	0.9427883287521572	0.9427883287521543	-0.1012395426189511	-0.1743177677364992	0.1567628599775819	0.0157505447163182	-0.1235720606413078	-0.1533107624584616	-0.4206185766755379	1.589024886768191	-0.02373648421230333	0.556031159872146	-0.8241317789619902	1.773626768762842	1.773626768762841	0.1556767678939173	0.001333944183561267	0.4300829156965991	0.1222055487217119	-0.2814622863328403	0.02815935973399459	-0.004950762044869956	-0.2475012797602145	0.07756914738902349	0.04217711908624492	0.3368183908012096	-19.59662699661882	-16.32182244715566	3.78755306957729	-7.591262350050659	-707.2799593067692	-70.58754759736789	-8.872573906452713	0.3126604815070981	0.6691647830815615	-0.1297490939983981	-1.698400111820325	0.3005286916654386	-0.57208893605428	2.037597988311112	-1.646284153059003	-1.646284153059307	-0.2706867435984446	-0.01855292316043738	-0.3599321858483041	0.279118757863811	-2.498398478419086e-07	-1.211354633614059e-07	1.546868181993201e-06	1.497730929358769e-07	-2.802428576742414e-07	-6.010243574446628e-08	-2.149975719921535e-07
0.52	-0.09801273364480453	-0.04374070589873356	0.7977627213467021	0.964328979662854	-0.3301694711640188	-0.06654711149966851	-0.806724159113441	0.960439812907838	0.9604398129078321	-0.09969497908626235	-0.1743055370488848	0.1610451824017529	0.0169867153304389	-0.120396963867083	-0.1466053740363539	-0.4216200383990115	1.571378221681321	-0.02070015066713889	0.5498954058145109	-0.8034490543684771	1.756410165649631	1.756410165649629	0.1532375178641198	0.001098970251273488	0.4263131022503188	0.1249961628734323	-0.2877772457350093	0.02844276538708079	-0.005116950212004088	-0.2513727817158273	0.07682968683473738	0.04220423324630897	0.343242120600419	-20.11125665523071	-16.17297711626512	3.683280946024797	-7.51242171084577	-712.1244986765942	-70.46588458766138	-8.147546731438322	0.3224443410452414	0.6718020306052542	-0.07034765693646859	-1.829031289551644	0.3140295875183417	-0.671855038717702	2.098914727232849	-1.794529182184269	-1.794529182184269	-0.1909005213814054	-0.03003948892018269	-0.3905486394526861	0.2890098431284578	-2.479791634690286e-07	-1.823961281974423e-07	1.494369501563442e-06	1.375841743698921e-07	-2.743494529865705e-07	-5.629381346797497e-08	-2.171573108092812e-07
0.53	-0.09920039326659455	-0.04517319868721764	0.7935439636123308	0.9799489607596997	-0.3303618209596664	-0.06108009740308898	-0.8146529271717317	0.9779115260592961	0.977911526059293	-0.09817556045917376	-0.1742957507655898	0.1652877572614156	0.01824954927785011	-0.1171165958111704	-0.1398969986802253	-0.4220336319908405	1.552403613754294	-0.01779480730012656	0.5435313129515981	-0.7822238551281541	1.737690131544749	1.737690131544748	0.1505551297138328	0.000893797294718925	0.4221349100079467	0.1275208026937948	-0.2938985296584732	0.02866957159173139	-0.005215382494070581	-0.2551002465331521	0.07572656573439346	0.04212043147627572	0.3493924565907283	-20.73971963979271	-15.95100216204998	3.561606100985887	-7.220719746087113	-716.76894510712	-70.24143604509578	-7.434081583898479	0.3335649110479723	0.6698092715342712	-0.01223798843150705	-1.963863370551467	0.2748426871719321	-0.6153032251808997	2.146427846655834	-1.947046830881746	-1.947046830881585	-0.3205853513907659	-0.01013937610316555	-0.4415004500904463	0.2265798127470226	-2.373117227217496e-07	-1.790129667410681e-07	1.450851271092577e-06	1.318265381366708e-07	-2.590077171690132e-07	-2.601328095548276e-08	-2.122654802198309e-07
